<svg width="1728" height="263" viewBox="0 0 1728 263" fill="none" xmlns="http://www.w3.org/2000/svg">
<path opacity="0.03" d="M148.6 209.4H43.8L27 259H-44.6L57 -21.8H136.2L237.8 259H165.4L148.6 209.4ZM131 156.6L96.2 53.8L61.8 156.6H131ZM337.122 67.4C343.522 57 352.722 48.6 364.722 42.2C376.722 35.8 390.455 32.6 405.922 32.6C424.322 32.6 440.989 37.2667 455.922 46.6C470.855 55.9333 482.589 69.2667 491.122 86.6C499.922 103.933 504.322 124.067 504.322 147C504.322 169.933 499.922 190.2 491.122 207.8C482.589 225.133 470.855 238.6 455.922 248.2C440.989 257.533 424.322 262.2 405.922 262.2C390.189 262.2 376.455 259.133 364.722 253C352.989 246.6 343.789 238.2 337.122 227.8V259H268.722V-37H337.122V67.4ZM434.722 147C434.722 129.933 429.922 116.6 420.322 107C410.989 97.1333 399.389 92.2 385.522 92.2C371.922 92.2 360.322 97.1333 350.722 107C341.389 116.867 336.722 130.333 336.722 147.4C336.722 164.467 341.389 177.933 350.722 187.8C360.322 197.667 371.922 202.6 385.522 202.6C399.122 202.6 410.722 197.667 420.322 187.8C429.922 177.667 434.722 164.067 434.722 147ZM641.806 262.2C619.94 262.2 600.206 257.533 582.606 248.2C565.273 238.867 551.54 225.533 541.406 208.2C531.54 190.867 526.606 170.6 526.606 147.4C526.606 124.467 531.673 104.333 541.806 87C551.94 69.4 565.806 55.9333 583.406 46.6C601.006 37.2667 620.74 32.6 642.606 32.6C664.473 32.6 684.206 37.2667 701.806 46.6C719.406 55.9333 733.273 69.4 743.406 87C753.54 104.333 758.606 124.467 758.606 147.4C758.606 170.333 753.406 190.6 743.006 208.2C732.873 225.533 718.873 238.867 701.006 248.2C683.406 257.533 663.673 262.2 641.806 262.2ZM641.806 203C654.873 203 665.94 198.2 675.006 188.6C684.34 179 689.006 165.267 689.006 147.4C689.006 129.533 684.473 115.8 675.406 106.2C666.606 96.6 655.673 91.8 642.606 91.8C629.273 91.8 618.206 96.6 609.406 106.2C600.606 115.533 596.206 129.267 596.206 147.4C596.206 165.267 600.473 179 609.006 188.6C617.806 198.2 628.74 203 641.806 203ZM1015.29 35.8V259H946.894V228.6C939.96 238.467 930.494 246.467 918.494 252.6C906.76 258.467 893.694 261.4 879.294 261.4C862.227 261.4 847.16 257.667 834.094 250.2C821.027 242.467 810.894 231.4 803.694 217C796.494 202.6 792.894 185.667 792.894 166.2V35.8H860.894V157C860.894 171.933 864.76 183.533 872.494 191.8C880.227 200.067 890.627 204.2 903.694 204.2C917.027 204.2 927.56 200.067 935.294 191.8C943.027 183.533 946.894 171.933 946.894 157V35.8H1015.29ZM1188.83 201V259H1154.03C1129.23 259 1109.89 253 1096.03 241C1082.16 228.733 1075.23 208.867 1075.23 181.4V92.6H1048.03V35.8H1075.23V-18.6H1143.63V35.8H1188.43V92.6H1143.63V182.2C1143.63 188.867 1145.23 193.667 1148.43 196.6C1151.63 199.533 1156.96 201 1164.43 201H1188.83ZM1532.09 35.8V259H1463.69V228.6C1456.76 238.467 1447.29 246.467 1435.29 252.6C1423.56 258.467 1410.49 261.4 1396.09 261.4C1379.02 261.4 1363.96 257.667 1350.89 250.2C1337.82 242.467 1327.69 231.4 1320.49 217C1313.29 202.6 1309.69 185.667 1309.69 166.2V35.8H1377.69V157C1377.69 171.933 1381.56 183.533 1389.29 191.8C1397.02 200.067 1407.42 204.2 1420.49 204.2C1433.82 204.2 1444.36 200.067 1452.09 191.8C1459.82 183.533 1463.69 171.933 1463.69 157V35.8H1532.09ZM1672.02 262.2C1652.56 262.2 1635.22 258.867 1620.02 252.2C1604.82 245.533 1592.82 236.467 1584.02 225C1575.22 213.267 1570.29 200.2 1569.22 185.8H1636.82C1637.62 193.533 1641.22 199.8 1647.62 204.6C1654.02 209.4 1661.89 211.8 1671.22 211.8C1679.76 211.8 1686.29 210.2 1690.82 207C1695.62 203.533 1698.02 199.133 1698.02 193.8C1698.02 187.4 1694.69 182.733 1688.02 179.8C1681.36 176.6 1670.56 173.133 1655.62 169.4C1639.62 165.667 1626.29 161.8 1615.62 157.8C1604.96 153.533 1595.76 147 1588.02 138.2C1580.29 129.133 1576.42 117 1576.42 101.8C1576.42 89 1579.89 77.4 1586.82 67C1594.02 56.3333 1604.42 47.9333 1618.02 41.8C1631.89 35.6666 1648.29 32.6 1667.22 32.6C1695.22 32.6 1717.22 39.5333 1733.22 53.4C1749.49 67.2667 1758.82 85.6667 1761.22 108.6H1698.02C1696.96 100.867 1693.49 94.7333 1687.62 90.2C1682.02 85.6667 1674.56 83.4 1665.22 83.4C1657.22 83.4 1651.09 85 1646.82 88.2C1642.56 91.1333 1640.42 95.2667 1640.42 100.6C1640.42 107 1643.76 111.8 1650.42 115C1657.36 118.2 1668.02 121.4 1682.42 124.6C1698.96 128.867 1712.42 133.133 1722.82 137.4C1733.22 141.4 1742.29 148.067 1750.02 157.4C1758.02 166.467 1762.16 178.733 1762.42 194.2C1762.42 207.267 1758.69 219 1751.22 229.4C1744.02 239.533 1733.49 247.533 1719.62 253.4C1706.02 259.267 1690.16 262.2 1672.02 262.2Z" fill="white"/>
</svg>
