<svg width="1728" height="324" viewBox="0 0 1728 324" fill="none" xmlns="http://www.w3.org/2000/svg">
<path opacity="0.03" d="M-108.6 157C-108.6 139.8 -105.4 124.7 -99 111.7C-92.4 98.7 -83.5 88.7 -72.3 81.7C-61.1 74.7 -48.6 71.2 -34.8 71.2C-23.8 71.2 -13.8 73.5 -4.8 78.1C4.4 82.7 11.6 88.9 16.8 96.7V19H68.1V241H16.8V217C12 225 5.1 231.4 -3.9 236.2C-12.7 241 -23 243.4 -34.8 243.4C-48.6 243.4 -61.1 239.9 -72.3 232.9C-83.5 225.7 -92.4 215.6 -99 202.6C-105.4 189.4 -108.6 174.2 -108.6 157ZM16.8 157.3C16.8 144.5 13.2 134.4 6.00001 127C-0.999991 119.6 -9.59999 115.9 -19.8 115.9C-30 115.9 -38.7 119.6 -45.9 127C-52.9 134.2 -56.4 144.2 -56.4 157C-56.4 169.8 -52.9 180 -45.9 187.6C-38.7 195 -30 198.7 -19.8 198.7C-9.59999 198.7 -0.999991 195 6.00001 187.6C13.2 180.2 16.8 170.1 16.8 157.3ZM131.013 56.2C122.013 56.2 114.613 53.6 108.813 48.4C103.213 43 100.413 36.4 100.413 28.6C100.413 20.6 103.213 14 108.813 8.79999C114.613 3.39998 122.013 0.699982 131.013 0.699982C139.813 0.699982 147.013 3.39998 152.613 8.79999C158.413 14 161.313 20.6 161.313 28.6C161.313 36.4 158.413 43 152.613 48.4C147.013 53.6 139.813 56.2 131.013 56.2ZM156.513 73.6V241H105.213V73.6H156.513ZM261.79 243.4C247.19 243.4 234.19 240.9 222.79 235.9C211.39 230.9 202.39 224.1 195.79 215.5C189.19 206.7 185.49 196.9 184.69 186.1H235.39C235.99 191.9 238.69 196.6 243.49 200.2C248.29 203.8 254.19 205.6 261.19 205.6C267.59 205.6 272.49 204.4 275.89 202C279.49 199.4 281.29 196.1 281.29 192.1C281.29 187.3 278.79 183.8 273.79 181.6C268.79 179.2 260.69 176.6 249.49 173.8C237.49 171 227.49 168.1 219.49 165.1C211.49 161.9 204.59 157 198.79 150.4C192.99 143.6 190.09 134.5 190.09 123.1C190.09 113.5 192.69 104.8 197.89 97C203.29 89 211.09 82.7 221.29 78.1C231.69 73.5 243.99 71.2 258.19 71.2C279.19 71.2 295.69 76.4 307.69 86.8C319.89 97.2 326.89 111 328.69 128.2H281.29C280.49 122.4 277.89 117.8 273.49 114.4C269.29 111 263.69 109.3 256.69 109.3C250.69 109.3 246.09 110.5 242.89 112.9C239.69 115.1 238.09 118.2 238.09 122.2C238.09 127 240.59 130.6 245.59 133C250.79 135.4 258.79 137.8 269.59 140.2C281.99 143.4 292.09 146.6 299.89 149.8C307.69 152.8 314.49 157.8 320.29 164.8C326.29 171.6 329.39 180.8 329.59 192.4C329.59 202.2 326.79 211 321.19 218.8C315.79 226.4 307.89 232.4 297.49 236.8C287.29 241.2 275.39 243.4 261.79 243.4ZM350.775 157.3C350.775 139.9 354.275 124.7 361.275 111.7C368.475 98.7 378.375 88.7 390.975 81.7C403.775 74.7 418.375 71.2 434.775 71.2C455.775 71.2 473.275 76.7 487.275 87.7C501.475 98.7 510.775 114.2 515.175 134.2H460.575C455.975 121.4 447.075 115 433.875 115C424.475 115 416.975 118.7 411.375 126.1C405.775 133.3 402.975 143.7 402.975 157.3C402.975 170.9 405.775 181.4 411.375 188.8C416.975 196 424.475 199.6 433.875 199.6C447.075 199.6 455.975 193.2 460.575 180.4H515.175C510.775 200 501.475 215.4 487.275 226.6C473.075 237.8 455.575 243.4 434.775 243.4C418.375 243.4 403.775 239.9 390.975 232.9C378.375 225.9 368.475 215.9 361.275 202.9C354.275 189.9 350.775 174.7 350.775 157.3ZM618.816 243.4C602.416 243.4 587.616 239.9 574.416 232.9C561.416 225.9 551.116 215.9 543.516 202.9C536.116 189.9 532.416 174.7 532.416 157.3C532.416 140.1 536.216 125 543.816 112C551.416 98.8 561.816 88.7 575.016 81.7C588.216 74.7 603.016 71.2 619.416 71.2C635.816 71.2 650.616 74.7 663.816 81.7C677.016 88.7 687.416 98.8 695.016 112C702.616 125 706.416 140.1 706.416 157.3C706.416 174.5 702.516 189.7 694.716 202.9C687.116 215.9 676.616 225.9 663.216 232.9C650.016 239.9 635.216 243.4 618.816 243.4ZM618.816 199C628.616 199 636.916 195.4 643.716 188.2C650.716 181 654.216 170.7 654.216 157.3C654.216 143.9 650.816 133.6 644.016 126.4C637.416 119.2 629.216 115.6 619.416 115.6C609.416 115.6 601.116 119.2 594.516 126.4C587.916 133.4 584.616 143.7 584.616 157.3C584.616 170.7 587.816 181 594.216 188.2C600.816 195.4 609.016 199 618.816 199ZM797.231 71.2C809.031 71.2 819.331 73.6 828.131 78.4C837.131 83.2 844.031 89.5 848.831 97.3V73.6H900.131V240.7C900.131 256.1 897.031 270 890.831 282.4C884.831 295 875.531 305 862.931 312.4C850.531 319.8 835.031 323.5 816.431 323.5C791.631 323.5 771.531 317.6 756.131 305.8C740.731 294.2 731.931 278.4 729.731 258.4H780.431C782.031 264.8 785.831 269.8 791.831 273.4C797.831 277.2 805.231 279.1 814.031 279.1C824.631 279.1 833.031 276 839.231 269.8C845.631 263.8 848.831 254.1 848.831 240.7V217C843.831 224.8 836.931 231.2 828.131 236.2C819.331 241 809.031 243.4 797.231 243.4C783.431 243.4 770.931 239.9 759.731 232.9C748.531 225.7 739.631 215.6 733.031 202.6C726.631 189.4 723.431 174.2 723.431 157C723.431 139.8 726.631 124.7 733.031 111.7C739.631 98.7 748.531 88.7 759.731 81.7C770.931 74.7 783.431 71.2 797.231 71.2ZM848.831 157.3C848.831 144.5 845.231 134.4 838.031 127C831.031 119.6 822.431 115.9 812.231 115.9C802.031 115.9 793.331 119.6 786.131 127C779.131 134.2 775.631 144.2 775.631 157C775.631 169.8 779.131 180 786.131 187.6C793.331 195 802.031 198.7 812.231 198.7C822.431 198.7 831.031 195 838.031 187.6C845.231 180.2 848.831 170.1 848.831 157.3ZM988.545 101.5C994.545 92.3 1002.04 85.1 1011.04 79.9C1020.04 74.5 1030.04 71.8 1041.04 71.8V126.1H1026.94C1014.14 126.1 1004.54 128.9 998.145 134.5C991.745 139.9 988.545 149.5 988.545 163.3V241H937.245V73.6H988.545V101.5ZM1055.36 157C1055.36 139.8 1058.56 124.7 1064.96 111.7C1071.56 98.7 1080.46 88.7 1091.66 81.7C1102.86 74.7 1115.36 71.2 1129.16 71.2C1140.96 71.2 1151.26 73.6 1160.06 78.4C1169.06 83.2 1175.96 89.5 1180.76 97.3V73.6H1232.06V241H1180.76V217.3C1175.76 225.1 1168.76 231.4 1159.76 236.2C1150.96 241 1140.66 243.4 1128.86 243.4C1115.26 243.4 1102.86 239.9 1091.66 232.9C1080.46 225.7 1071.56 215.6 1064.96 202.6C1058.56 189.4 1055.36 174.2 1055.36 157ZM1180.76 157.3C1180.76 144.5 1177.16 134.4 1169.96 127C1162.96 119.6 1154.36 115.9 1144.16 115.9C1133.96 115.9 1125.26 119.6 1118.06 127C1111.06 134.2 1107.56 144.2 1107.56 157C1107.56 169.8 1111.06 180 1118.06 187.6C1125.26 195 1133.96 198.7 1144.16 198.7C1154.36 198.7 1162.96 195 1169.96 187.6C1177.16 180.2 1180.76 170.1 1180.76 157.3ZM1320.48 97.3C1325.48 89.5 1332.38 83.2 1341.18 78.4C1349.98 73.6 1360.28 71.2 1372.08 71.2C1385.88 71.2 1398.38 74.7 1409.58 81.7C1420.78 88.7 1429.58 98.7 1435.98 111.7C1442.58 124.7 1445.88 139.8 1445.88 157C1445.88 174.2 1442.58 189.4 1435.98 202.6C1429.58 215.6 1420.78 225.7 1409.58 232.9C1398.38 239.9 1385.88 243.4 1372.08 243.4C1360.48 243.4 1350.18 241 1341.18 236.2C1332.38 231.4 1325.48 225.2 1320.48 217.6V320.8H1269.18V73.6H1320.48V97.3ZM1393.68 157C1393.68 144.2 1390.08 134.2 1382.88 127C1375.88 119.6 1367.18 115.9 1356.78 115.9C1346.58 115.9 1337.88 119.6 1330.68 127C1323.68 134.4 1320.18 144.5 1320.18 157.3C1320.18 170.1 1323.68 180.2 1330.68 187.6C1337.88 195 1346.58 198.7 1356.78 198.7C1366.98 198.7 1375.68 195 1382.88 187.6C1390.08 180 1393.68 169.8 1393.68 157ZM1575.69 71.8C1594.89 71.8 1610.29 78.2 1621.89 91C1633.49 103.6 1639.29 121 1639.29 143.2V241H1588.29V150.1C1588.29 138.9 1585.39 130.2 1579.59 124C1573.79 117.8 1565.99 114.7 1556.19 114.7C1546.39 114.7 1538.59 117.8 1532.79 124C1526.99 130.2 1524.09 138.9 1524.09 150.1V241H1472.79V19H1524.09V96.1C1529.29 88.7 1536.39 82.8 1545.39 78.4C1554.39 74 1564.49 71.8 1575.69 71.8ZM1845.94 73.6L1740.94 320.5H1685.74L1724.14 235.3L1656.04 73.6H1713.34L1752.04 178.3L1790.44 73.6H1845.94Z" fill="#4D2A15"/>
</svg>
