<svg width="190" height="19" viewBox="0 0 190 19" fill="none" xmlns="http://www.w3.org/2000/svg">
<g clip-path="url(#clip0_91_1333)">
<path d="M72.2144 -0.135255C73.1545 -0.184112 74.0946 -0.249255 75.0347 -0.298112C75.3634 -0.317112 75.692 -0.333398 76.0207 -0.338827C81.2038 -0.428398 86.3852 -0.501684 91.5683 -0.583112C92.5552 -0.599398 93.5421 -0.650969 94.529 -0.637398C96.7379 -0.615684 98.9486 -0.528827 101.157 -0.479969C104.132 -0.414827 107.104 -0.352398 110.078 -0.295398C111.147 -0.273684 112.217 -0.254684 113.286 -0.241112C113.709 -0.232969 114.132 -0.257398 114.556 -0.230255C119.046 0.065602 123.537 0.402173 128.028 0.722459C130.109 0.874459 132.19 1.00746 134.27 1.18932C135.422 1.29517 136.575 1.45532 137.727 1.58832C142.394 2.13117 147.063 2.65503 151.73 3.22775C152.306 3.29832 152.882 3.41775 153.459 3.51546C154.611 3.70546 155.764 3.9036 156.917 4.08546C157.045 4.10989 157.174 4.12346 157.304 4.1316C159.549 4.30803 161.794 4.46817 164.039 4.63917C165.745 4.76946 167.449 4.90517 169.154 5.03274L169.753 5.06532C171.002 5.14132 173.086 5.24446 174.372 5.36117C175.031 5.42089 175.691 5.40732 176.348 5.57832C176.613 5.64889 176.892 5.70046 177.125 6.08046C177.283 6.33289 177.271 7.29103 177.448 7.3616C178.86 7.92074 180.292 7.85017 181.717 7.90446C181.818 7.90989 181.897 7.5896 181.997 7.54075C182.346 7.37246 182.7 7.20146 183.054 7.26389C183.263 7.29917 183.452 7.67646 183.655 7.83117C183.748 7.89878 183.843 7.9343 183.938 7.93703C185.304 8.0076 186.159 7.90174 187.428 8.03746C187.691 8.0646 188.37 8.17317 188.699 8.34146C188.865 8.42832 189.043 8.45003 189.194 8.67532C189.441 9.0526 189.705 9.45703 189.869 10.122C189.956 10.4695 189.99 11.1562 189.876 11.4167C188.572 14.3807 187.578 13.2353 185.969 13.0996C182.653 12.7975 179.337 12.4537 176.022 12.0682C175.022 11.9515 174.023 11.8619 173.023 11.7099C170.695 11.3597 168.368 10.9445 166.039 10.5672C161.817 9.88317 157.598 9.06346 153.374 8.5206C152.294 8.38489 151.212 8.5206 150.131 8.52875C146.076 8.54503 142.022 8.54232 137.968 8.58303C135.782 8.60474 133.596 8.67803 131.411 8.71875C129.765 8.74589 128.12 8.77303 126.475 8.78932C117.85 8.88974 109.224 8.99017 100.599 9.07703C98.8009 9.09603 97.0026 9.04989 95.2053 9.10689C94.665 9.12589 94.1247 9.23717 93.5845 9.28874C90.9173 9.53846 88.25 9.74203 85.5837 10.0053C84.0917 10.1546 82.6005 10.3582 81.1084 10.5319C78.6186 10.825 76.1288 11.1019 73.6372 11.4059C69.2663 11.9487 65.6427 12.516 61.1656 13.124C58.5533 13.4769 54.4661 13.9872 51.7565 14.3075C51.2045 14.3753 50.6535 14.4323 50.0997 14.4893C47.7044 14.739 45.3082 14.9806 42.9121 15.2357C42.1602 15.3172 41.4083 15.4013 40.6564 15.499C37.6373 15.9075 34.6192 16.3761 31.6021 16.905C30.4144 17.1113 29.2294 17.3447 28.0435 17.5755C27.3393 17.7112 26.6297 17.722 25.93 18.0097C25.777 18.0722 25.6635 18.5445 25.5095 18.615C25.4195 18.653 24.1498 18.4603 24.0273 18.3165C23.9157 18.1862 23.7878 17.798 23.8121 17.4397C23.8382 17.0869 24.0084 16.9729 24.1273 16.8996C24.5325 16.6553 24.9485 16.6227 25.36 16.5006C26.0264 16.297 27.5275 15.9197 28.0363 15.8085C29.9849 15.3823 31.9335 14.9535 33.8839 14.5843C35.3571 14.3047 40.3808 13.4307 42.868 13.1186C46.9723 12.6083 47.283 12.6789 51.7124 12.0763C55.8465 11.509 59.9806 10.8956 64.1137 10.3012C65.7706 10.065 67.4752 10.7979 69.0817 9.58189C70.4504 8.54503 66.2632 9.69046 64.853 9.74475C60.0697 9.9266 55.2882 10.0895 50.5058 10.2957C46.3348 10.4749 42.1638 10.6622 37.9928 10.8929C36.3945 10.9797 34.7961 11.1317 33.1996 11.2512C31.2617 11.4032 29.3221 11.5362 27.3843 11.7126C23.1791 12.0926 18.9739 12.5106 14.7687 12.9015C12.5355 13.1132 10.3041 13.3167 8.07185 13.5122C7.12094 13.599 6.16914 13.6669 5.21734 13.7402C4.72388 13.7782 4.23042 13.8107 3.73786 13.8569C3.47853 13.884 3.22009 13.9112 2.96166 13.9437C2.63388 13.9845 2.30341 14.0903 1.97474 13.9817C1.77346 13.9213 1.57331 13.8307 1.37502 13.7103C1.30028 13.6669 1.21294 13.6506 1.16251 13.485C0.908575 12.6572 0.406111 11.908 0.48085 10.8033C0.55739 9.69317 1.09858 9.42446 1.46057 9.11503C2.0873 8.58846 2.75004 8.55589 3.39658 8.33603C4.66986 7.90175 6.15113 7.65203 7.4118 7.41589C10.2411 6.88609 13.0713 6.40475 15.9024 5.97189C23.3223 4.83189 31.6354 3.57246 39.086 2.6686C46.7256 1.7376 52.431 1.19474 59.8428 0.516173C60.3597 0.470031 60.8765 0.429316 61.3934 0.399459C62.1093 0.358745 62.827 0.350602 63.5428 0.318031C66.4334 0.174173 69.3239 0.0221735 72.2144 -0.135255ZM56.7983 5.81446C59.4772 5.77103 62.1201 5.66789 64.799 5.56474C69.1357 5.39917 73.5066 5.2906 77.8433 5.18474C81.7198 5.09246 85.563 5.0626 89.4054 5.03274L100.829 4.94589L112.321 4.85903C110.03 4.83189 107.702 4.74232 105.41 4.71517L96.8424 4.5116C95.7492 4.49532 94.6911 4.4166 93.5989 4.45732L78.5456 4.68532C77.3822 4.72874 76.1837 4.71789 74.9843 4.76675C72.517 4.85903 70.0506 5.01103 67.5833 5.10603C65.5032 5.18746 63.4591 5.32317 61.3799 5.4046C60.8504 5.48603 60.2858 5.50503 59.723 5.58375C58.7712 5.62175 57.8194 5.71674 56.7983 5.81446Z" fill="white"/>
</g>
<defs>
<clipPath id="clip0_91_1333">
<rect width="190" height="19" fill="white"/>
</clipPath>
</defs>
</svg>
