<svg width="380" height="427" viewBox="0 0 380 427" fill="none" xmlns="http://www.w3.org/2000/svg">
<rect width="380" height="427" rx="16" fill="url(#paint0_linear_91_1341)"/>
<path fill-rule="evenodd" clip-rule="evenodd" d="M186.027 165.937L188.15 159.151L194.936 157.027L192.812 163.813L186.027 165.937Z" stroke="white" stroke-width="1.5" stroke-linecap="round" stroke-linejoin="round"/>
<circle cx="190.481" cy="161.482" r="12.8146" stroke="white" stroke-width="1.5" stroke-linecap="round" stroke-linejoin="round"/>
<path d="M98.6365 211V194.08H104.493C106.397 194.08 108.005 194.408 109.317 195.064C110.645 195.72 111.645 196.68 112.317 197.944C113.005 199.192 113.349 200.72 113.349 202.528C113.349 204.32 113.005 205.848 112.317 207.112C111.645 208.376 110.645 209.344 109.317 210.016C108.005 210.672 106.397 211 104.493 211H98.6365ZM101.133 208.912H104.349C106.525 208.912 108.141 208.384 109.197 207.328C110.269 206.272 110.805 204.672 110.805 202.528C110.805 200.384 110.269 198.792 109.197 197.752C108.141 196.696 106.525 196.168 104.349 196.168H101.133V208.912ZM116.514 211V198.904H118.938V211H116.514ZM116.322 196.384V193.864H119.13V196.384H116.322ZM126.643 211.216C125.635 211.216 124.707 211.088 123.859 210.832C123.011 210.576 122.307 210.216 121.747 209.752L122.491 208.096C123.083 208.544 123.739 208.88 124.459 209.104C125.179 209.328 125.915 209.44 126.667 209.44C127.547 209.44 128.211 209.288 128.659 208.984C129.107 208.664 129.331 208.232 129.331 207.688C129.331 207.272 129.187 206.936 128.899 206.68C128.627 206.424 128.171 206.232 127.531 206.104L125.227 205.648C124.203 205.424 123.427 205.04 122.899 204.496C122.371 203.952 122.107 203.256 122.107 202.408C122.107 201.688 122.299 201.048 122.683 200.488C123.083 199.928 123.643 199.488 124.363 199.168C125.099 198.848 125.955 198.688 126.931 198.688C127.827 198.688 128.659 198.816 129.427 199.072C130.195 199.328 130.835 199.696 131.347 200.176L130.579 201.784C130.083 201.368 129.523 201.048 128.899 200.824C128.275 200.584 127.643 200.464 127.003 200.464C126.107 200.464 125.443 200.632 125.011 200.968C124.579 201.304 124.363 201.744 124.363 202.288C124.363 202.704 124.491 203.048 124.747 203.32C125.019 203.576 125.443 203.776 126.019 203.92L128.323 204.376C129.411 204.6 130.227 204.968 130.771 205.48C131.315 205.992 131.587 206.68 131.587 207.544C131.587 208.296 131.379 208.952 130.963 209.512C130.547 210.072 129.971 210.496 129.235 210.784C128.499 211.072 127.635 211.216 126.643 211.216ZM139.748 211.216C138.532 211.216 137.468 210.968 136.556 210.472C135.66 209.96 134.964 209.232 134.468 208.288C133.988 207.328 133.748 206.192 133.748 204.88C133.748 203.584 133.996 202.472 134.492 201.544C134.988 200.616 135.684 199.912 136.58 199.432C137.476 198.936 138.532 198.688 139.748 198.688C140.532 198.688 141.292 198.824 142.028 199.096C142.764 199.352 143.372 199.72 143.852 200.2L143.06 201.904C142.612 201.472 142.108 201.152 141.548 200.944C140.988 200.72 140.444 200.608 139.916 200.608C138.764 200.608 137.86 200.976 137.204 201.712C136.548 202.448 136.22 203.512 136.22 204.904C136.22 206.312 136.548 207.392 137.204 208.144C137.86 208.896 138.764 209.272 139.916 209.272C140.428 209.272 140.964 209.176 141.524 208.984C142.084 208.776 142.596 208.448 143.06 208L143.852 209.704C143.356 210.184 142.732 210.56 141.98 210.832C141.244 211.088 140.5 211.216 139.748 211.216ZM151.37 211.216C150.17 211.216 149.13 210.968 148.25 210.472C147.37 209.96 146.69 209.24 146.21 208.312C145.73 207.368 145.49 206.248 145.49 204.952C145.49 203.656 145.73 202.544 146.21 201.616C146.69 200.672 147.37 199.952 148.25 199.456C149.13 198.944 150.17 198.688 151.37 198.688C152.57 198.688 153.61 198.944 154.49 199.456C155.386 199.952 156.074 200.672 156.554 201.616C157.05 202.544 157.298 203.656 157.298 204.952C157.298 206.248 157.05 207.368 156.554 208.312C156.074 209.24 155.386 209.96 154.49 210.472C153.61 210.968 152.57 211.216 151.37 211.216ZM151.37 209.32C152.426 209.32 153.266 208.952 153.89 208.216C154.514 207.48 154.826 206.392 154.826 204.952C154.826 203.512 154.514 202.432 153.89 201.712C153.266 200.976 152.426 200.608 151.37 200.608C150.33 200.608 149.498 200.976 148.874 201.712C148.25 202.432 147.938 203.512 147.938 204.952C147.938 206.392 148.242 207.48 148.85 208.216C149.474 208.952 150.314 209.32 151.37 209.32ZM163.473 211L158.289 198.904H160.881L164.961 209.008H164.265L168.417 198.904H170.889L165.681 211H163.473ZM178.192 211.216C176.24 211.216 174.704 210.664 173.584 209.56C172.464 208.456 171.904 206.928 171.904 204.976C171.904 203.712 172.144 202.608 172.624 201.664C173.12 200.72 173.8 199.992 174.664 199.48C175.544 198.952 176.56 198.688 177.712 198.688C178.848 198.688 179.8 198.928 180.568 199.408C181.336 199.888 181.92 200.568 182.32 201.448C182.72 202.312 182.92 203.336 182.92 204.52V205.288H173.8V203.896H181.264L180.856 204.208C180.856 203.008 180.584 202.08 180.04 201.424C179.512 200.752 178.744 200.416 177.736 200.416C176.616 200.416 175.752 200.808 175.144 201.592C174.536 202.36 174.232 203.424 174.232 204.784V205.024C174.232 206.448 174.576 207.52 175.264 208.24C175.968 208.96 176.96 209.32 178.24 209.32C178.944 209.32 179.6 209.224 180.208 209.032C180.832 208.824 181.424 208.488 181.984 208.024L182.776 209.68C182.216 210.176 181.536 210.56 180.736 210.832C179.936 211.088 179.088 211.216 178.192 211.216ZM185.654 211V201.904C185.654 201.408 185.638 200.912 185.606 200.416C185.59 199.904 185.558 199.4 185.51 198.904H187.862L188.126 202.024H187.742C187.902 201.272 188.174 200.648 188.558 200.152C188.942 199.656 189.406 199.288 189.95 199.048C190.51 198.808 191.094 198.688 191.702 198.688C191.958 198.688 192.174 198.704 192.35 198.736C192.526 198.752 192.702 198.784 192.878 198.832L192.854 200.992C192.582 200.88 192.342 200.816 192.134 200.8C191.942 200.768 191.702 200.752 191.414 200.752C190.71 200.752 190.11 200.912 189.614 201.232C189.118 201.536 188.742 201.952 188.486 202.48C188.23 203.008 188.102 203.576 188.102 204.184V211H185.654ZM205.851 211.216C204.539 211.216 203.547 210.864 202.875 210.16C202.203 209.44 201.867 208.368 201.867 206.944V200.776H199.515V198.904H201.867V195.712L204.291 195.064V198.904H207.651V200.776H204.291V206.728C204.291 207.624 204.451 208.264 204.771 208.648C205.091 209.032 205.555 209.224 206.163 209.224C206.467 209.224 206.731 209.2 206.955 209.152C207.195 209.088 207.411 209.016 207.603 208.936V210.904C207.363 211 207.083 211.072 206.763 211.12C206.443 211.184 206.139 211.216 205.851 211.216ZM209.866 211V193.336H212.29V201.472H211.954C212.306 200.56 212.874 199.872 213.658 199.408C214.442 198.928 215.346 198.688 216.37 198.688C217.81 198.688 218.882 199.088 219.586 199.888C220.29 200.672 220.642 201.864 220.642 203.464V211H218.218V203.608C218.218 202.568 218.01 201.816 217.594 201.352C217.194 200.872 216.554 200.632 215.674 200.632C214.65 200.632 213.826 200.952 213.202 201.592C212.594 202.216 212.29 203.048 212.29 204.088V211H209.866ZM229.684 211.216C227.732 211.216 226.196 210.664 225.076 209.56C223.956 208.456 223.396 206.928 223.396 204.976C223.396 203.712 223.636 202.608 224.116 201.664C224.612 200.72 225.292 199.992 226.156 199.48C227.036 198.952 228.052 198.688 229.204 198.688C230.34 198.688 231.292 198.928 232.06 199.408C232.828 199.888 233.412 200.568 233.812 201.448C234.212 202.312 234.412 203.336 234.412 204.52V205.288H225.292V203.896H232.756L232.348 204.208C232.348 203.008 232.076 202.08 231.532 201.424C231.004 200.752 230.236 200.416 229.228 200.416C228.108 200.416 227.244 200.808 226.636 201.592C226.028 202.36 225.724 203.424 225.724 204.784V205.024C225.724 206.448 226.068 207.52 226.756 208.24C227.46 208.96 228.452 209.32 229.732 209.32C230.436 209.32 231.092 209.224 231.7 209.032C232.324 208.824 232.916 208.488 233.476 208.024L234.268 209.68C233.708 210.176 233.028 210.56 232.228 210.832C231.428 211.088 230.58 211.216 229.684 211.216ZM243.544 211V201.904C243.544 201.408 243.528 200.912 243.496 200.416C243.48 199.904 243.448 199.4 243.4 198.904H245.752L246.016 202.024H245.632C245.792 201.272 246.064 200.648 246.448 200.152C246.832 199.656 247.296 199.288 247.84 199.048C248.4 198.808 248.984 198.688 249.592 198.688C249.848 198.688 250.064 198.704 250.24 198.736C250.416 198.752 250.592 198.784 250.768 198.832L250.744 200.992C250.472 200.88 250.232 200.816 250.024 200.8C249.832 200.768 249.592 200.752 249.304 200.752C248.6 200.752 248 200.912 247.504 201.232C247.008 201.536 246.632 201.952 246.376 202.48C246.12 203.008 245.992 203.576 245.992 204.184V211H243.544ZM258.067 211.216C256.115 211.216 254.579 210.664 253.459 209.56C252.339 208.456 251.779 206.928 251.779 204.976C251.779 203.712 252.019 202.608 252.499 201.664C252.995 200.72 253.675 199.992 254.539 199.48C255.419 198.952 256.435 198.688 257.587 198.688C258.723 198.688 259.675 198.928 260.443 199.408C261.211 199.888 261.795 200.568 262.195 201.448C262.595 202.312 262.795 203.336 262.795 204.52V205.288H253.675V203.896H261.139L260.731 204.208C260.731 203.008 260.459 202.08 259.915 201.424C259.387 200.752 258.619 200.416 257.611 200.416C256.491 200.416 255.627 200.808 255.019 201.592C254.411 202.36 254.107 203.424 254.107 204.784V205.024C254.107 206.448 254.451 207.52 255.139 208.24C255.843 208.96 256.835 209.32 258.115 209.32C258.819 209.32 259.475 209.224 260.083 209.032C260.707 208.824 261.299 208.488 261.859 208.024L262.651 209.68C262.091 210.176 261.411 210.56 260.611 210.832C259.811 211.088 258.963 211.216 258.067 211.216ZM269.729 211.216C268.721 211.216 267.793 211.088 266.945 210.832C266.097 210.576 265.393 210.216 264.833 209.752L265.577 208.096C266.169 208.544 266.825 208.88 267.545 209.104C268.265 209.328 269.001 209.44 269.753 209.44C270.633 209.44 271.297 209.288 271.745 208.984C272.193 208.664 272.417 208.232 272.417 207.688C272.417 207.272 272.273 206.936 271.985 206.68C271.713 206.424 271.257 206.232 270.617 206.104L268.313 205.648C267.289 205.424 266.513 205.04 265.985 204.496C265.457 203.952 265.193 203.256 265.193 202.408C265.193 201.688 265.385 201.048 265.769 200.488C266.169 199.928 266.729 199.488 267.449 199.168C268.185 198.848 269.041 198.688 270.017 198.688C270.913 198.688 271.745 198.816 272.513 199.072C273.281 199.328 273.921 199.696 274.433 200.176L273.665 201.784C273.169 201.368 272.609 201.048 271.985 200.824C271.361 200.584 270.729 200.464 270.089 200.464C269.193 200.464 268.529 200.632 268.097 200.968C267.665 201.304 267.449 201.744 267.449 202.288C267.449 202.704 267.577 203.048 267.833 203.32C268.105 203.576 268.529 203.776 269.105 203.92L271.409 204.376C272.497 204.6 273.313 204.968 273.857 205.48C274.401 205.992 274.673 206.68 274.673 207.544C274.673 208.296 274.465 208.952 274.049 209.512C273.633 210.072 273.057 210.496 272.321 210.784C271.585 211.072 270.721 211.216 269.729 211.216ZM282.117 211.216C280.805 211.216 279.813 210.864 279.141 210.16C278.469 209.44 278.133 208.368 278.133 206.944V200.776H275.781V198.904H278.133V195.712L280.557 195.064V198.904H283.917V200.776H280.557V206.728C280.557 207.624 280.717 208.264 281.037 208.648C281.357 209.032 281.821 209.224 282.429 209.224C282.733 209.224 282.997 209.2 283.221 209.152C283.461 209.088 283.677 209.016 283.869 208.936V210.904C283.629 211 283.349 211.072 283.029 211.12C282.709 211.184 282.405 211.216 282.117 211.216ZM95.2491 243.216C94.0491 243.216 93.0091 242.968 92.1291 242.472C91.2491 241.96 90.5691 241.24 90.0891 240.312C89.6091 239.368 89.3691 238.248 89.3691 236.952C89.3691 235.656 89.6091 234.544 90.0891 233.616C90.5691 232.672 91.2491 231.952 92.1291 231.456C93.0091 230.944 94.0491 230.688 95.2491 230.688C96.4491 230.688 97.4891 230.944 98.3691 231.456C99.2651 231.952 99.9531 232.672 100.433 233.616C100.929 234.544 101.177 235.656 101.177 236.952C101.177 238.248 100.929 239.368 100.433 240.312C99.9531 241.24 99.2651 241.96 98.3691 242.472C97.4891 242.968 96.4491 243.216 95.2491 243.216ZM95.2491 241.32C96.3051 241.32 97.1451 240.952 97.7691 240.216C98.3931 239.48 98.7051 238.392 98.7051 236.952C98.7051 235.512 98.3931 234.432 97.7691 233.712C97.1451 232.976 96.3051 232.608 95.2491 232.608C94.2091 232.608 93.3771 232.976 92.7531 233.712C92.1291 234.432 91.8171 235.512 91.8171 236.952C91.8171 238.392 92.1211 239.48 92.7291 240.216C93.3531 240.952 94.1931 241.32 95.2491 241.32ZM104.613 243V232.776H102.261V230.904H105.285L104.613 231.528V229.608C104.613 228.184 104.973 227.104 105.693 226.368C106.413 225.616 107.469 225.24 108.861 225.24C109.197 225.24 109.549 225.264 109.917 225.312C110.285 225.36 110.589 225.44 110.829 225.552V227.52C110.637 227.44 110.397 227.376 110.109 227.328C109.837 227.264 109.557 227.232 109.269 227.232C108.805 227.232 108.405 227.328 108.069 227.52C107.733 227.696 107.469 227.968 107.277 228.336C107.101 228.704 107.013 229.176 107.013 229.752V231.384L106.653 230.904H110.301V232.776H107.037V243H104.613ZM118.969 243V226.08H121.153L127.681 240.792H126.961L133.489 226.08H135.649V243H133.393V229.464H134.185L128.089 243H126.529L120.433 229.464H121.249V243H118.969ZM144.103 243.216C143.031 243.216 142.095 242.968 141.295 242.472C140.495 241.976 139.871 241.256 139.423 240.312C138.991 239.368 138.775 238.248 138.775 236.952C138.775 235.64 138.991 234.52 139.423 233.592C139.871 232.664 140.495 231.952 141.295 231.456C142.095 230.944 143.031 230.688 144.103 230.688C145.159 230.688 146.079 230.952 146.863 231.48C147.647 232.008 148.167 232.728 148.423 233.64H148.159L148.399 230.904H150.751C150.703 231.4 150.655 231.896 150.607 232.392C150.575 232.872 150.559 233.344 150.559 233.808V243H148.135V240.312H148.399C148.143 241.208 147.615 241.92 146.815 242.448C146.031 242.96 145.127 243.216 144.103 243.216ZM144.703 241.32C145.743 241.32 146.575 240.952 147.199 240.216C147.839 239.48 148.159 238.392 148.159 236.952C148.159 235.512 147.839 234.432 147.199 233.712C146.575 232.976 145.743 232.608 144.703 232.608C143.647 232.608 142.799 232.976 142.159 233.712C141.535 234.432 141.223 235.512 141.223 236.952C141.223 238.392 141.535 239.48 142.159 240.216C142.783 240.952 143.631 241.32 144.703 241.32ZM157.531 243L152.347 230.904H154.939L159.019 241.008H158.323L162.475 230.904H164.947L159.739 243H157.531ZM166.87 243V230.904H169.294V243H166.87ZM166.678 228.384V225.864H169.486V228.384H166.678ZM172.846 243V233.808C172.846 233.344 172.822 232.872 172.774 232.392C172.742 231.896 172.702 231.4 172.654 230.904H175.006L175.222 233.448H174.934C175.302 232.552 175.87 231.872 176.638 231.408C177.406 230.928 178.294 230.688 179.302 230.688C180.726 230.688 181.798 231.08 182.518 231.864C183.254 232.648 183.622 233.864 183.622 235.512V243H181.198V235.656C181.198 234.584 180.982 233.816 180.55 233.352C180.134 232.872 179.494 232.632 178.63 232.632C177.606 232.632 176.79 232.952 176.182 233.592C175.574 234.216 175.27 235.064 175.27 236.136V243H172.846ZM187.516 231.864L186.46 231.048C186.924 230.568 187.236 230.12 187.396 229.704C187.572 229.272 187.66 228.84 187.66 228.408L188.308 228.912H186.292V226.08H189.148V228.024C189.148 228.744 189.028 229.416 188.788 230.04C188.548 230.648 188.124 231.256 187.516 231.864ZM195.772 243.216C194.764 243.216 193.836 243.088 192.988 242.832C192.14 242.576 191.436 242.216 190.876 241.752L191.62 240.096C192.212 240.544 192.868 240.88 193.588 241.104C194.308 241.328 195.044 241.44 195.796 241.44C196.676 241.44 197.34 241.288 197.788 240.984C198.236 240.664 198.46 240.232 198.46 239.688C198.46 239.272 198.316 238.936 198.028 238.68C197.756 238.424 197.3 238.232 196.66 238.104L194.356 237.648C193.332 237.424 192.556 237.04 192.028 236.496C191.5 235.952 191.236 235.256 191.236 234.408C191.236 233.688 191.428 233.048 191.812 232.488C192.212 231.928 192.772 231.488 193.492 231.168C194.228 230.848 195.084 230.688 196.06 230.688C196.956 230.688 197.788 230.816 198.556 231.072C199.324 231.328 199.964 231.696 200.476 232.176L199.708 233.784C199.212 233.368 198.652 233.048 198.028 232.824C197.404 232.584 196.772 232.464 196.132 232.464C195.236 232.464 194.572 232.632 194.14 232.968C193.708 233.304 193.492 233.744 193.492 234.288C193.492 234.704 193.62 235.048 193.876 235.32C194.148 235.576 194.572 235.776 195.148 235.92L197.452 236.376C198.54 236.6 199.356 236.968 199.9 237.48C200.444 237.992 200.716 238.68 200.716 239.544C200.716 240.296 200.508 240.952 200.092 241.512C199.676 242.072 199.1 242.496 198.364 242.784C197.628 243.072 196.764 243.216 195.772 243.216ZM214.603 243.216C213.531 243.216 212.595 242.968 211.795 242.472C210.995 241.976 210.371 241.256 209.923 240.312C209.491 239.368 209.275 238.248 209.275 236.952C209.275 235.64 209.491 234.52 209.923 233.592C210.371 232.664 210.995 231.952 211.795 231.456C212.595 230.944 213.531 230.688 214.603 230.688C215.659 230.688 216.579 230.952 217.363 231.48C218.147 232.008 218.667 232.728 218.923 233.64H218.659L218.899 230.904H221.251C221.203 231.4 221.155 231.896 221.107 232.392C221.075 232.872 221.059 233.344 221.059 233.808V243H218.635V240.312H218.899C218.643 241.208 218.115 241.92 217.315 242.448C216.531 242.96 215.627 243.216 214.603 243.216ZM215.203 241.32C216.243 241.32 217.075 240.952 217.699 240.216C218.339 239.48 218.659 238.392 218.659 236.952C218.659 235.512 218.339 234.432 217.699 233.712C217.075 232.976 216.243 232.608 215.203 232.608C214.147 232.608 213.299 232.976 212.659 233.712C212.035 234.432 211.723 235.512 211.723 236.952C211.723 238.392 212.035 239.48 212.659 240.216C213.283 240.952 214.131 241.32 215.203 241.32ZM224.548 243V233.904C224.548 233.408 224.532 232.912 224.5 232.416C224.484 231.904 224.452 231.4 224.404 230.904H226.756L227.02 234.024H226.636C226.796 233.272 227.068 232.648 227.452 232.152C227.836 231.656 228.3 231.288 228.844 231.048C229.404 230.808 229.988 230.688 230.596 230.688C230.852 230.688 231.068 230.704 231.244 230.736C231.42 230.752 231.596 230.784 231.772 230.832L231.748 232.992C231.476 232.88 231.236 232.816 231.028 232.8C230.836 232.768 230.596 232.752 230.308 232.752C229.604 232.752 229.004 232.912 228.508 233.232C228.012 233.536 227.636 233.952 227.38 234.48C227.124 235.008 226.996 235.576 226.996 236.184V243H224.548ZM239.003 243.216C237.691 243.216 236.699 242.864 236.027 242.16C235.355 241.44 235.019 240.368 235.019 238.944V232.776H232.667V230.904H235.019V227.712L237.443 227.064V230.904H240.803V232.776H237.443V238.728C237.443 239.624 237.603 240.264 237.923 240.648C238.243 241.032 238.707 241.224 239.315 241.224C239.619 241.224 239.883 241.2 240.107 241.152C240.347 241.088 240.563 241.016 240.755 240.936V242.904C240.515 243 240.235 243.072 239.915 243.12C239.595 243.184 239.291 243.216 239.003 243.216ZM243.018 243V230.904H245.442V243H243.018ZM242.826 228.384V225.864H245.634V228.384H242.826ZM253.147 243.216C252.139 243.216 251.211 243.088 250.363 242.832C249.515 242.576 248.811 242.216 248.251 241.752L248.995 240.096C249.587 240.544 250.243 240.88 250.963 241.104C251.683 241.328 252.419 241.44 253.171 241.44C254.051 241.44 254.715 241.288 255.163 240.984C255.611 240.664 255.835 240.232 255.835 239.688C255.835 239.272 255.691 238.936 255.403 238.68C255.131 238.424 254.675 238.232 254.035 238.104L251.731 237.648C250.707 237.424 249.931 237.04 249.403 236.496C248.875 235.952 248.611 235.256 248.611 234.408C248.611 233.688 248.803 233.048 249.187 232.488C249.587 231.928 250.147 231.488 250.867 231.168C251.603 230.848 252.459 230.688 253.435 230.688C254.331 230.688 255.163 230.816 255.931 231.072C256.699 231.328 257.339 231.696 257.851 232.176L257.083 233.784C256.587 233.368 256.027 233.048 255.403 232.824C254.779 232.584 254.147 232.464 253.507 232.464C252.611 232.464 251.947 232.632 251.515 232.968C251.083 233.304 250.867 233.744 250.867 234.288C250.867 234.704 250.995 235.048 251.251 235.32C251.523 235.576 251.947 235.776 252.523 235.92L254.827 236.376C255.915 236.6 256.731 236.968 257.275 237.48C257.819 237.992 258.091 238.68 258.091 239.544C258.091 240.296 257.883 240.952 257.467 241.512C257.051 242.072 256.475 242.496 255.739 242.784C255.003 243.072 254.139 243.216 253.147 243.216ZM265.535 243.216C264.223 243.216 263.231 242.864 262.559 242.16C261.887 241.44 261.551 240.368 261.551 238.944V232.776H259.199V230.904H261.551V227.712L263.975 227.064V230.904H267.335V232.776H263.975V238.728C263.975 239.624 264.135 240.264 264.455 240.648C264.775 241.032 265.239 241.224 265.847 241.224C266.151 241.224 266.415 241.2 266.639 241.152C266.879 241.088 267.095 241.016 267.287 240.936V242.904C267.047 243 266.767 243.072 266.447 243.12C266.127 243.184 265.823 243.216 265.535 243.216ZM275.024 243.216C273.072 243.216 271.536 242.664 270.416 241.56C269.296 240.456 268.736 238.928 268.736 236.976C268.736 235.712 268.976 234.608 269.456 233.664C269.952 232.72 270.632 231.992 271.496 231.48C272.376 230.952 273.392 230.688 274.544 230.688C275.68 230.688 276.632 230.928 277.4 231.408C278.168 231.888 278.752 232.568 279.152 233.448C279.552 234.312 279.752 235.336 279.752 236.52V237.288H270.632V235.896H278.096L277.688 236.208C277.688 235.008 277.416 234.08 276.872 233.424C276.344 232.752 275.576 232.416 274.568 232.416C273.448 232.416 272.584 232.808 271.976 233.592C271.368 234.36 271.064 235.424 271.064 236.784V237.024C271.064 238.448 271.408 239.52 272.096 240.24C272.8 240.96 273.792 241.32 275.072 241.32C275.776 241.32 276.432 241.224 277.04 241.032C277.664 240.824 278.256 240.488 278.816 240.024L279.608 241.68C279.048 242.176 278.368 242.56 277.568 242.832C276.768 243.088 275.92 243.216 275.024 243.216ZM286.686 243.216C285.678 243.216 284.75 243.088 283.902 242.832C283.054 242.576 282.35 242.216 281.79 241.752L282.534 240.096C283.126 240.544 283.782 240.88 284.502 241.104C285.222 241.328 285.958 241.44 286.71 241.44C287.59 241.44 288.254 241.288 288.702 240.984C289.15 240.664 289.374 240.232 289.374 239.688C289.374 239.272 289.23 238.936 288.942 238.68C288.67 238.424 288.214 238.232 287.574 238.104L285.27 237.648C284.246 237.424 283.47 237.04 282.942 236.496C282.414 235.952 282.15 235.256 282.15 234.408C282.15 233.688 282.342 233.048 282.726 232.488C283.126 231.928 283.686 231.488 284.406 231.168C285.142 230.848 285.998 230.688 286.974 230.688C287.87 230.688 288.702 230.816 289.47 231.072C290.238 231.328 290.878 231.696 291.39 232.176L290.622 233.784C290.126 233.368 289.566 233.048 288.942 232.824C288.318 232.584 287.686 232.464 287.046 232.464C286.15 232.464 285.486 232.632 285.054 232.968C284.622 233.304 284.406 233.744 284.406 234.288C284.406 234.704 284.534 235.048 284.79 235.32C285.062 235.576 285.486 235.776 286.062 235.92L288.366 236.376C289.454 236.6 290.27 236.968 290.814 237.48C291.358 237.992 291.63 238.68 291.63 239.544C291.63 240.296 291.422 240.952 291.006 241.512C290.59 242.072 290.014 242.496 289.278 242.784C288.542 243.072 287.678 243.216 286.686 243.216ZM142.791 280.448L142.215 278.48C142.967 278.32 143.591 278.128 144.087 277.904C144.599 277.68 145.023 277.384 145.359 277.016C145.695 276.664 145.983 276.208 146.223 275.648L146.823 274.232L146.775 275.216L141.519 262.904H144.111L148.191 272.984H147.543L151.623 262.904H154.119L148.575 275.864C148.223 276.664 147.847 277.336 147.447 277.88C147.047 278.424 146.615 278.864 146.151 279.2C145.687 279.536 145.175 279.8 144.615 279.992C144.055 280.184 143.447 280.336 142.791 280.448ZM160.991 275.216C159.791 275.216 158.751 274.968 157.871 274.472C156.991 273.96 156.311 273.24 155.831 272.312C155.351 271.368 155.111 270.248 155.111 268.952C155.111 267.656 155.351 266.544 155.831 265.616C156.311 264.672 156.991 263.952 157.871 263.456C158.751 262.944 159.791 262.688 160.991 262.688C162.191 262.688 163.231 262.944 164.111 263.456C165.007 263.952 165.695 264.672 166.175 265.616C166.671 266.544 166.919 267.656 166.919 268.952C166.919 270.248 166.671 271.368 166.175 272.312C165.695 273.24 165.007 273.96 164.111 274.472C163.231 274.968 162.191 275.216 160.991 275.216ZM160.991 273.32C162.047 273.32 162.887 272.952 163.511 272.216C164.135 271.48 164.447 270.392 164.447 268.952C164.447 267.512 164.135 266.432 163.511 265.712C162.887 264.976 162.047 264.608 160.991 264.608C159.951 264.608 159.119 264.976 158.495 265.712C157.871 266.432 157.559 267.512 157.559 268.952C157.559 270.392 157.863 271.48 158.471 272.216C159.095 272.952 159.935 273.32 160.991 273.32ZM174.049 275.216C172.593 275.216 171.497 274.824 170.761 274.04C170.041 273.24 169.681 272.016 169.681 270.368V262.904H172.105V270.32C172.105 271.328 172.313 272.072 172.729 272.552C173.145 273.032 173.777 273.272 174.625 273.272C175.585 273.272 176.361 272.952 176.953 272.312C177.545 271.672 177.841 270.824 177.841 269.768V262.904H180.265V275H177.913V272.408H178.225C177.889 273.304 177.353 274 176.617 274.496C175.881 274.976 175.025 275.216 174.049 275.216ZM190.214 275V257.336H192.638V275H190.214ZM201.374 275.216C200.174 275.216 199.134 274.968 198.254 274.472C197.374 273.96 196.694 273.24 196.214 272.312C195.734 271.368 195.494 270.248 195.494 268.952C195.494 267.656 195.734 266.544 196.214 265.616C196.694 264.672 197.374 263.952 198.254 263.456C199.134 262.944 200.174 262.688 201.374 262.688C202.574 262.688 203.614 262.944 204.494 263.456C205.39 263.952 206.078 264.672 206.558 265.616C207.054 266.544 207.302 267.656 207.302 268.952C207.302 270.248 207.054 271.368 206.558 272.312C206.078 273.24 205.39 273.96 204.494 274.472C203.614 274.968 202.574 275.216 201.374 275.216ZM201.374 273.32C202.43 273.32 203.27 272.952 203.894 272.216C204.518 271.48 204.83 270.392 204.83 268.952C204.83 267.512 204.518 266.432 203.894 265.712C203.27 264.976 202.43 264.608 201.374 264.608C200.334 264.608 199.502 264.976 198.878 265.712C198.254 266.432 197.942 267.512 197.942 268.952C197.942 270.392 198.246 271.48 198.854 272.216C199.478 272.952 200.318 273.32 201.374 273.32ZM213.476 275L208.292 262.904H210.884L214.964 273.008H214.268L218.42 262.904H220.892L215.684 275H213.476ZM228.196 275.216C226.244 275.216 224.708 274.664 223.588 273.56C222.468 272.456 221.908 270.928 221.908 268.976C221.908 267.712 222.148 266.608 222.628 265.664C223.124 264.72 223.804 263.992 224.668 263.48C225.548 262.952 226.564 262.688 227.716 262.688C228.852 262.688 229.804 262.928 230.572 263.408C231.34 263.888 231.924 264.568 232.324 265.448C232.724 266.312 232.924 267.336 232.924 268.52V269.288H223.804V267.896H231.268L230.86 268.208C230.86 267.008 230.588 266.08 230.044 265.424C229.516 264.752 228.748 264.416 227.74 264.416C226.62 264.416 225.756 264.808 225.148 265.592C224.54 266.36 224.236 267.424 224.236 268.784V269.024C224.236 270.448 224.58 271.52 225.268 272.24C225.972 272.96 226.964 273.32 228.244 273.32C228.948 273.32 229.604 273.224 230.212 273.032C230.836 272.824 231.428 272.488 231.988 272.024L232.78 273.68C232.22 274.176 231.54 274.56 230.74 274.832C229.94 275.088 229.092 275.216 228.196 275.216ZM236.042 270.32L235.274 258.08H238.274L237.53 270.32H236.042ZM235.346 275V272.144H238.202V275H235.346Z" fill="white"/>
<defs>
<linearGradient id="paint0_linear_91_1341" x1="190" y1="-121.5" x2="190" y2="427" gradientUnits="userSpaceOnUse">
<stop stop-color="#131415" stop-opacity="0"/>
<stop offset="0.477134" stop-color="#131415" stop-opacity="0.776042"/>
<stop offset="0.657716" stop-color="#131415" stop-opacity="0.912139"/>
<stop offset="1" stop-color="#131415"/>
</linearGradient>
</defs>
</svg>
