<svg width="207" height="136" viewBox="0 0 207 136" fill="none" xmlns="http://www.w3.org/2000/svg">
<path fill-rule="evenodd" clip-rule="evenodd" d="M99.0267 19.9366L101.15 13.1509L107.936 11.0273L105.812 17.813L99.0267 19.9366Z" stroke="white" stroke-width="1.5" stroke-linecap="round" stroke-linejoin="round"/>
<circle cx="103.481" cy="15.4816" r="12.8146" stroke="white" stroke-width="1.5" stroke-linecap="round" stroke-linejoin="round"/>
<path d="M11.6365 65V48.08H17.4925C19.3965 48.08 21.0045 48.408 22.3165 49.064C23.6445 49.72 24.6445 50.68 25.3165 51.944C26.0045 53.192 26.3485 54.72 26.3485 56.528C26.3485 58.32 26.0045 59.848 25.3165 61.112C24.6445 62.376 23.6445 63.344 22.3165 64.016C21.0045 64.672 19.3965 65 17.4925 65H11.6365ZM14.1325 62.912H17.3485C19.5245 62.912 21.1405 62.384 22.1965 61.328C23.2685 60.272 23.8045 58.672 23.8045 56.528C23.8045 54.384 23.2685 52.792 22.1965 51.752C21.1405 50.696 19.5245 50.168 17.3485 50.168H14.1325V62.912ZM29.5143 65V52.904H31.9383V65H29.5143ZM29.3223 50.384V47.864H32.1303V50.384H29.3223ZM39.6428 65.216C38.6348 65.216 37.7068 65.088 36.8588 64.832C36.0108 64.576 35.3068 64.216 34.7468 63.752L35.4908 62.096C36.0828 62.544 36.7388 62.88 37.4588 63.104C38.1788 63.328 38.9148 63.44 39.6668 63.44C40.5468 63.44 41.2108 63.288 41.6588 62.984C42.1068 62.664 42.3308 62.232 42.3308 61.688C42.3308 61.272 42.1868 60.936 41.8988 60.68C41.6268 60.424 41.1708 60.232 40.5308 60.104L38.2268 59.648C37.2028 59.424 36.4268 59.04 35.8988 58.496C35.3708 57.952 35.1068 57.256 35.1068 56.408C35.1068 55.688 35.2988 55.048 35.6828 54.488C36.0828 53.928 36.6428 53.488 37.3628 53.168C38.0988 52.848 38.9548 52.688 39.9308 52.688C40.8268 52.688 41.6588 52.816 42.4268 53.072C43.1948 53.328 43.8348 53.696 44.3468 54.176L43.5788 55.784C43.0828 55.368 42.5228 55.048 41.8988 54.824C41.2748 54.584 40.6428 54.464 40.0028 54.464C39.1068 54.464 38.4428 54.632 38.0108 54.968C37.5788 55.304 37.3628 55.744 37.3628 56.288C37.3628 56.704 37.4908 57.048 37.7468 57.32C38.0188 57.576 38.4428 57.776 39.0188 57.92L41.3228 58.376C42.4108 58.6 43.2268 58.968 43.7708 59.48C44.3148 59.992 44.5868 60.68 44.5868 61.544C44.5868 62.296 44.3788 62.952 43.9628 63.512C43.5468 64.072 42.9708 64.496 42.2348 64.784C41.4988 65.072 40.6348 65.216 39.6428 65.216ZM52.748 65.216C51.532 65.216 50.468 64.968 49.556 64.472C48.66 63.96 47.964 63.232 47.468 62.288C46.988 61.328 46.748 60.192 46.748 58.88C46.748 57.584 46.996 56.472 47.492 55.544C47.988 54.616 48.684 53.912 49.58 53.432C50.476 52.936 51.532 52.688 52.748 52.688C53.532 52.688 54.292 52.824 55.028 53.096C55.764 53.352 56.372 53.72 56.852 54.2L56.06 55.904C55.612 55.472 55.108 55.152 54.548 54.944C53.988 54.72 53.444 54.608 52.916 54.608C51.764 54.608 50.86 54.976 50.204 55.712C49.548 56.448 49.22 57.512 49.22 58.904C49.22 60.312 49.548 61.392 50.204 62.144C50.86 62.896 51.764 63.272 52.916 63.272C53.428 63.272 53.964 63.176 54.524 62.984C55.084 62.776 55.596 62.448 56.06 62L56.852 63.704C56.356 64.184 55.732 64.56 54.98 64.832C54.244 65.088 53.5 65.216 52.748 65.216ZM64.3702 65.216C63.1702 65.216 62.1302 64.968 61.2502 64.472C60.3702 63.96 59.6902 63.24 59.2102 62.312C58.7302 61.368 58.4902 60.248 58.4902 58.952C58.4902 57.656 58.7302 56.544 59.2102 55.616C59.6902 54.672 60.3702 53.952 61.2502 53.456C62.1302 52.944 63.1702 52.688 64.3702 52.688C65.5702 52.688 66.6102 52.944 67.4902 53.456C68.3862 53.952 69.0742 54.672 69.5542 55.616C70.0502 56.544 70.2982 57.656 70.2982 58.952C70.2982 60.248 70.0502 61.368 69.5542 62.312C69.0742 63.24 68.3862 63.96 67.4902 64.472C66.6102 64.968 65.5702 65.216 64.3702 65.216ZM64.3702 63.32C65.4262 63.32 66.2662 62.952 66.8902 62.216C67.5142 61.48 67.8262 60.392 67.8262 58.952C67.8262 57.512 67.5142 56.432 66.8902 55.712C66.2662 54.976 65.4262 54.608 64.3702 54.608C63.3302 54.608 62.4982 54.976 61.8742 55.712C61.2502 56.432 60.9382 57.512 60.9382 58.952C60.9382 60.392 61.2422 61.48 61.8502 62.216C62.4742 62.952 63.3142 63.32 64.3702 63.32ZM76.4725 65L71.2885 52.904H73.8805L77.9605 63.008H77.2645L81.4165 52.904H83.8885L78.6805 65H76.4725ZM91.1922 65.216C89.2402 65.216 87.7042 64.664 86.5842 63.56C85.4642 62.456 84.9042 60.928 84.9042 58.976C84.9042 57.712 85.1442 56.608 85.6242 55.664C86.1202 54.72 86.8002 53.992 87.6642 53.48C88.5442 52.952 89.5602 52.688 90.7122 52.688C91.8482 52.688 92.8002 52.928 93.5682 53.408C94.3362 53.888 94.9202 54.568 95.3202 55.448C95.7202 56.312 95.9202 57.336 95.9202 58.52V59.288H86.8002V57.896H94.2642L93.8562 58.208C93.8562 57.008 93.5842 56.08 93.0402 55.424C92.5122 54.752 91.7442 54.416 90.7362 54.416C89.6162 54.416 88.7522 54.808 88.1442 55.592C87.5362 56.36 87.2322 57.424 87.2322 58.784V59.024C87.2322 60.448 87.5762 61.52 88.2642 62.24C88.9682 62.96 89.9602 63.32 91.2402 63.32C91.9442 63.32 92.6002 63.224 93.2082 63.032C93.8322 62.824 94.4242 62.488 94.9842 62.024L95.7762 63.68C95.2162 64.176 94.5362 64.56 93.7362 64.832C92.9362 65.088 92.0882 65.216 91.1922 65.216ZM98.6538 65V55.904C98.6538 55.408 98.6378 54.912 98.6058 54.416C98.5898 53.904 98.5578 53.4 98.5098 52.904H100.862L101.126 56.024H100.742C100.902 55.272 101.174 54.648 101.558 54.152C101.942 53.656 102.406 53.288 102.95 53.048C103.51 52.808 104.094 52.688 104.702 52.688C104.958 52.688 105.174 52.704 105.35 52.736C105.526 52.752 105.702 52.784 105.878 52.832L105.854 54.992C105.582 54.88 105.342 54.816 105.134 54.8C104.942 54.768 104.702 54.752 104.414 54.752C103.71 54.752 103.11 54.912 102.614 55.232C102.118 55.536 101.742 55.952 101.486 56.48C101.23 57.008 101.102 57.576 101.102 58.184V65H98.6538ZM118.851 65.216C117.539 65.216 116.547 64.864 115.875 64.16C115.203 63.44 114.867 62.368 114.867 60.944V54.776H112.515V52.904H114.867V49.712L117.291 49.064V52.904H120.651V54.776H117.291V60.728C117.291 61.624 117.451 62.264 117.771 62.648C118.091 63.032 118.555 63.224 119.163 63.224C119.467 63.224 119.731 63.2 119.955 63.152C120.195 63.088 120.411 63.016 120.603 62.936V64.904C120.363 65 120.083 65.072 119.763 65.12C119.443 65.184 119.139 65.216 118.851 65.216ZM122.866 65V47.336H125.29V55.472H124.954C125.306 54.56 125.874 53.872 126.658 53.408C127.442 52.928 128.346 52.688 129.37 52.688C130.81 52.688 131.882 53.088 132.586 53.888C133.29 54.672 133.642 55.864 133.642 57.464V65H131.218V57.608C131.218 56.568 131.01 55.816 130.594 55.352C130.194 54.872 129.554 54.632 128.674 54.632C127.65 54.632 126.826 54.952 126.202 55.592C125.594 56.216 125.29 57.048 125.29 58.088V65H122.866ZM142.684 65.216C140.732 65.216 139.196 64.664 138.076 63.56C136.956 62.456 136.396 60.928 136.396 58.976C136.396 57.712 136.636 56.608 137.116 55.664C137.612 54.72 138.292 53.992 139.156 53.48C140.036 52.952 141.052 52.688 142.204 52.688C143.34 52.688 144.292 52.928 145.06 53.408C145.828 53.888 146.412 54.568 146.812 55.448C147.212 56.312 147.412 57.336 147.412 58.52V59.288H138.292V57.896H145.756L145.348 58.208C145.348 57.008 145.076 56.08 144.532 55.424C144.004 54.752 143.236 54.416 142.228 54.416C141.108 54.416 140.244 54.808 139.636 55.592C139.028 56.36 138.724 57.424 138.724 58.784V59.024C138.724 60.448 139.068 61.52 139.756 62.24C140.46 62.96 141.452 63.32 142.732 63.32C143.436 63.32 144.092 63.224 144.7 63.032C145.324 62.824 145.916 62.488 146.476 62.024L147.268 63.68C146.708 64.176 146.028 64.56 145.228 64.832C144.428 65.088 143.58 65.216 142.684 65.216ZM156.544 65V55.904C156.544 55.408 156.528 54.912 156.496 54.416C156.48 53.904 156.448 53.4 156.4 52.904H158.752L159.016 56.024H158.632C158.792 55.272 159.064 54.648 159.448 54.152C159.832 53.656 160.296 53.288 160.84 53.048C161.4 52.808 161.984 52.688 162.592 52.688C162.848 52.688 163.064 52.704 163.24 52.736C163.416 52.752 163.592 52.784 163.768 52.832L163.744 54.992C163.472 54.88 163.232 54.816 163.024 54.8C162.832 54.768 162.592 54.752 162.304 54.752C161.6 54.752 161 54.912 160.504 55.232C160.008 55.536 159.632 55.952 159.376 56.48C159.12 57.008 158.992 57.576 158.992 58.184V65H156.544ZM171.067 65.216C169.115 65.216 167.579 64.664 166.459 63.56C165.339 62.456 164.779 60.928 164.779 58.976C164.779 57.712 165.019 56.608 165.499 55.664C165.995 54.72 166.675 53.992 167.539 53.48C168.419 52.952 169.435 52.688 170.587 52.688C171.723 52.688 172.675 52.928 173.443 53.408C174.211 53.888 174.795 54.568 175.195 55.448C175.595 56.312 175.795 57.336 175.795 58.52V59.288H166.675V57.896H174.139L173.731 58.208C173.731 57.008 173.459 56.08 172.915 55.424C172.387 54.752 171.619 54.416 170.611 54.416C169.491 54.416 168.627 54.808 168.019 55.592C167.411 56.36 167.107 57.424 167.107 58.784V59.024C167.107 60.448 167.451 61.52 168.139 62.24C168.843 62.96 169.835 63.32 171.115 63.32C171.819 63.32 172.475 63.224 173.083 63.032C173.707 62.824 174.299 62.488 174.859 62.024L175.651 63.68C175.091 64.176 174.411 64.56 173.611 64.832C172.811 65.088 171.963 65.216 171.067 65.216ZM182.729 65.216C181.721 65.216 180.793 65.088 179.945 64.832C179.097 64.576 178.393 64.216 177.833 63.752L178.577 62.096C179.169 62.544 179.825 62.88 180.545 63.104C181.265 63.328 182.001 63.44 182.753 63.44C183.633 63.44 184.297 63.288 184.745 62.984C185.193 62.664 185.417 62.232 185.417 61.688C185.417 61.272 185.273 60.936 184.985 60.68C184.713 60.424 184.257 60.232 183.617 60.104L181.313 59.648C180.289 59.424 179.513 59.04 178.985 58.496C178.457 57.952 178.193 57.256 178.193 56.408C178.193 55.688 178.385 55.048 178.769 54.488C179.169 53.928 179.729 53.488 180.449 53.168C181.185 52.848 182.041 52.688 183.017 52.688C183.913 52.688 184.745 52.816 185.513 53.072C186.281 53.328 186.921 53.696 187.433 54.176L186.665 55.784C186.169 55.368 185.609 55.048 184.985 54.824C184.361 54.584 183.729 54.464 183.089 54.464C182.193 54.464 181.529 54.632 181.097 54.968C180.665 55.304 180.449 55.744 180.449 56.288C180.449 56.704 180.577 57.048 180.833 57.32C181.105 57.576 181.529 57.776 182.105 57.92L184.409 58.376C185.497 58.6 186.313 58.968 186.857 59.48C187.401 59.992 187.673 60.68 187.673 61.544C187.673 62.296 187.465 62.952 187.049 63.512C186.633 64.072 186.057 64.496 185.321 64.784C184.585 65.072 183.721 65.216 182.729 65.216ZM195.117 65.216C193.805 65.216 192.813 64.864 192.141 64.16C191.469 63.44 191.133 62.368 191.133 60.944V54.776H188.781V52.904H191.133V49.712L193.557 49.064V52.904H196.917V54.776H193.557V60.728C193.557 61.624 193.717 62.264 194.037 62.648C194.357 63.032 194.821 63.224 195.429 63.224C195.733 63.224 195.997 63.2 196.221 63.152C196.461 63.088 196.677 63.016 196.869 62.936V64.904C196.629 65 196.349 65.072 196.029 65.12C195.709 65.184 195.405 65.216 195.117 65.216ZM8.24906 97.216C7.04906 97.216 6.00906 96.968 5.12906 96.472C4.24906 95.96 3.56906 95.24 3.08906 94.312C2.60906 93.368 2.36906 92.248 2.36906 90.952C2.36906 89.656 2.60906 88.544 3.08906 87.616C3.56906 86.672 4.24906 85.952 5.12906 85.456C6.00906 84.944 7.04906 84.688 8.24906 84.688C9.44906 84.688 10.4891 84.944 11.3691 85.456C12.2651 85.952 12.9531 86.672 13.4331 87.616C13.9291 88.544 14.1771 89.656 14.1771 90.952C14.1771 92.248 13.9291 93.368 13.4331 94.312C12.9531 95.24 12.2651 95.96 11.3691 96.472C10.4891 96.968 9.44906 97.216 8.24906 97.216ZM8.24906 95.32C9.30506 95.32 10.1451 94.952 10.7691 94.216C11.3931 93.48 11.7051 92.392 11.7051 90.952C11.7051 89.512 11.3931 88.432 10.7691 87.712C10.1451 86.976 9.30506 86.608 8.24906 86.608C7.20906 86.608 6.37706 86.976 5.75306 87.712C5.12906 88.432 4.81706 89.512 4.81706 90.952C4.81706 92.392 5.12106 93.48 5.72906 94.216C6.35306 94.952 7.19306 95.32 8.24906 95.32ZM17.6132 97V86.776H15.2612V84.904H18.2852L17.6132 85.528V83.608C17.6132 82.184 17.9732 81.104 18.6932 80.368C19.4132 79.616 20.4692 79.24 21.8612 79.24C22.1972 79.24 22.5492 79.264 22.9172 79.312C23.2852 79.36 23.5892 79.44 23.8292 79.552V81.52C23.6372 81.44 23.3972 81.376 23.1092 81.328C22.8372 81.264 22.5572 81.232 22.2692 81.232C21.8052 81.232 21.4052 81.328 21.0692 81.52C20.7332 81.696 20.4692 81.968 20.2772 82.336C20.1012 82.704 20.0132 83.176 20.0132 83.752V85.384L19.6532 84.904H23.3012V86.776H20.0372V97H17.6132ZM31.9691 97V80.08H34.1531L40.6811 94.792H39.9611L46.4891 80.08H48.6491V97H46.3931V83.464H47.1851L41.0891 97H39.5291L33.4331 83.464H34.2491V97H31.9691ZM57.1033 97.216C56.0313 97.216 55.0953 96.968 54.2953 96.472C53.4953 95.976 52.8713 95.256 52.4233 94.312C51.9913 93.368 51.7753 92.248 51.7753 90.952C51.7753 89.64 51.9913 88.52 52.4233 87.592C52.8713 86.664 53.4953 85.952 54.2953 85.456C55.0953 84.944 56.0313 84.688 57.1033 84.688C58.1593 84.688 59.0793 84.952 59.8633 85.48C60.6473 86.008 61.1673 86.728 61.4233 87.64H61.1593L61.3993 84.904H63.7513C63.7033 85.4 63.6553 85.896 63.6073 86.392C63.5753 86.872 63.5593 87.344 63.5593 87.808V97H61.1353V94.312H61.3993C61.1433 95.208 60.6153 95.92 59.8153 96.448C59.0313 96.96 58.1273 97.216 57.1033 97.216ZM57.7033 95.32C58.7433 95.32 59.5753 94.952 60.1993 94.216C60.8393 93.48 61.1593 92.392 61.1593 90.952C61.1593 89.512 60.8393 88.432 60.1993 87.712C59.5753 86.976 58.7433 86.608 57.7033 86.608C56.6473 86.608 55.7993 86.976 55.1593 87.712C54.5353 88.432 54.2233 89.512 54.2233 90.952C54.2233 92.392 54.5353 93.48 55.1593 94.216C55.7833 94.952 56.6313 95.32 57.7033 95.32ZM70.5311 97L65.3471 84.904H67.9391L72.0191 95.008H71.3231L75.4751 84.904H77.9471L72.7391 97H70.5311ZM79.8698 97V84.904H82.2938V97H79.8698ZM79.6777 82.384V79.864H82.4858V82.384H79.6777ZM85.8463 97V87.808C85.8463 87.344 85.8223 86.872 85.7743 86.392C85.7423 85.896 85.7023 85.4 85.6543 84.904H88.0063L88.2223 87.448H87.9343C88.3023 86.552 88.8703 85.872 89.6383 85.408C90.4063 84.928 91.2943 84.688 92.3023 84.688C93.7263 84.688 94.7983 85.08 95.5183 85.864C96.2543 86.648 96.6223 87.864 96.6223 89.512V97H94.1983V89.656C94.1983 88.584 93.9823 87.816 93.5503 87.352C93.1343 86.872 92.4943 86.632 91.6303 86.632C90.6063 86.632 89.7903 86.952 89.1823 87.592C88.5743 88.216 88.2703 89.064 88.2703 90.136V97H85.8463ZM100.516 85.864L99.4596 85.048C99.9236 84.568 100.236 84.12 100.396 83.704C100.572 83.272 100.66 82.84 100.66 82.408L101.308 82.912H99.2916V80.08H102.148V82.024C102.148 82.744 102.028 83.416 101.788 84.04C101.548 84.648 101.124 85.256 100.516 85.864ZM108.772 97.216C107.764 97.216 106.836 97.088 105.988 96.832C105.14 96.576 104.436 96.216 103.876 95.752L104.62 94.096C105.212 94.544 105.868 94.88 106.588 95.104C107.308 95.328 108.044 95.44 108.796 95.44C109.676 95.44 110.34 95.288 110.788 94.984C111.236 94.664 111.46 94.232 111.46 93.688C111.46 93.272 111.316 92.936 111.028 92.68C110.756 92.424 110.3 92.232 109.66 92.104L107.356 91.648C106.332 91.424 105.556 91.04 105.028 90.496C104.5 89.952 104.236 89.256 104.236 88.408C104.236 87.688 104.428 87.048 104.812 86.488C105.212 85.928 105.772 85.488 106.492 85.168C107.228 84.848 108.084 84.688 109.06 84.688C109.956 84.688 110.788 84.816 111.556 85.072C112.324 85.328 112.964 85.696 113.476 86.176L112.708 87.784C112.212 87.368 111.652 87.048 111.028 86.824C110.404 86.584 109.772 86.464 109.132 86.464C108.236 86.464 107.572 86.632 107.14 86.968C106.708 87.304 106.492 87.744 106.492 88.288C106.492 88.704 106.62 89.048 106.876 89.32C107.148 89.576 107.572 89.776 108.148 89.92L110.452 90.376C111.54 90.6 112.356 90.968 112.9 91.48C113.444 91.992 113.716 92.68 113.716 93.544C113.716 94.296 113.508 94.952 113.092 95.512C112.676 96.072 112.1 96.496 111.364 96.784C110.628 97.072 109.764 97.216 108.772 97.216ZM127.603 97.216C126.531 97.216 125.595 96.968 124.795 96.472C123.995 95.976 123.371 95.256 122.923 94.312C122.491 93.368 122.275 92.248 122.275 90.952C122.275 89.64 122.491 88.52 122.923 87.592C123.371 86.664 123.995 85.952 124.795 85.456C125.595 84.944 126.531 84.688 127.603 84.688C128.659 84.688 129.579 84.952 130.363 85.48C131.147 86.008 131.667 86.728 131.923 87.64H131.659L131.899 84.904H134.251C134.203 85.4 134.155 85.896 134.107 86.392C134.075 86.872 134.059 87.344 134.059 87.808V97H131.635V94.312H131.899C131.643 95.208 131.115 95.92 130.315 96.448C129.531 96.96 128.627 97.216 127.603 97.216ZM128.203 95.32C129.243 95.32 130.075 94.952 130.699 94.216C131.339 93.48 131.659 92.392 131.659 90.952C131.659 89.512 131.339 88.432 130.699 87.712C130.075 86.976 129.243 86.608 128.203 86.608C127.147 86.608 126.299 86.976 125.659 87.712C125.035 88.432 124.723 89.512 124.723 90.952C124.723 92.392 125.035 93.48 125.659 94.216C126.283 94.952 127.131 95.32 128.203 95.32ZM137.548 97V87.904C137.548 87.408 137.532 86.912 137.5 86.416C137.484 85.904 137.452 85.4 137.404 84.904H139.756L140.02 88.024H139.636C139.796 87.272 140.068 86.648 140.452 86.152C140.836 85.656 141.3 85.288 141.844 85.048C142.404 84.808 142.988 84.688 143.596 84.688C143.852 84.688 144.068 84.704 144.244 84.736C144.42 84.752 144.596 84.784 144.772 84.832L144.748 86.992C144.476 86.88 144.236 86.816 144.028 86.8C143.836 86.768 143.596 86.752 143.308 86.752C142.604 86.752 142.004 86.912 141.508 87.232C141.012 87.536 140.636 87.952 140.38 88.48C140.124 89.008 139.996 89.576 139.996 90.184V97H137.548ZM152.003 97.216C150.691 97.216 149.699 96.864 149.027 96.16C148.355 95.44 148.019 94.368 148.019 92.944V86.776H145.667V84.904H148.019V81.712L150.443 81.064V84.904H153.803V86.776H150.443V92.728C150.443 93.624 150.603 94.264 150.923 94.648C151.243 95.032 151.707 95.224 152.315 95.224C152.619 95.224 152.883 95.2 153.107 95.152C153.347 95.088 153.563 95.016 153.755 94.936V96.904C153.515 97 153.235 97.072 152.915 97.12C152.595 97.184 152.291 97.216 152.003 97.216ZM156.018 97V84.904H158.442V97H156.018ZM155.826 82.384V79.864H158.634V82.384H155.826ZM166.147 97.216C165.139 97.216 164.211 97.088 163.363 96.832C162.515 96.576 161.811 96.216 161.251 95.752L161.995 94.096C162.587 94.544 163.243 94.88 163.963 95.104C164.683 95.328 165.419 95.44 166.171 95.44C167.051 95.44 167.715 95.288 168.163 94.984C168.611 94.664 168.835 94.232 168.835 93.688C168.835 93.272 168.691 92.936 168.403 92.68C168.131 92.424 167.675 92.232 167.035 92.104L164.731 91.648C163.707 91.424 162.931 91.04 162.403 90.496C161.875 89.952 161.611 89.256 161.611 88.408C161.611 87.688 161.803 87.048 162.187 86.488C162.587 85.928 163.147 85.488 163.867 85.168C164.603 84.848 165.459 84.688 166.435 84.688C167.331 84.688 168.163 84.816 168.931 85.072C169.699 85.328 170.339 85.696 170.851 86.176L170.083 87.784C169.587 87.368 169.027 87.048 168.403 86.824C167.779 86.584 167.147 86.464 166.507 86.464C165.611 86.464 164.947 86.632 164.515 86.968C164.083 87.304 163.867 87.744 163.867 88.288C163.867 88.704 163.995 89.048 164.251 89.32C164.523 89.576 164.947 89.776 165.523 89.92L167.827 90.376C168.915 90.6 169.731 90.968 170.275 91.48C170.819 91.992 171.091 92.68 171.091 93.544C171.091 94.296 170.883 94.952 170.467 95.512C170.051 96.072 169.475 96.496 168.739 96.784C168.003 97.072 167.139 97.216 166.147 97.216ZM178.535 97.216C177.223 97.216 176.231 96.864 175.559 96.16C174.887 95.44 174.551 94.368 174.551 92.944V86.776H172.199V84.904H174.551V81.712L176.975 81.064V84.904H180.335V86.776H176.975V92.728C176.975 93.624 177.135 94.264 177.455 94.648C177.775 95.032 178.239 95.224 178.847 95.224C179.151 95.224 179.415 95.2 179.639 95.152C179.879 95.088 180.095 95.016 180.287 94.936V96.904C180.047 97 179.767 97.072 179.447 97.12C179.127 97.184 178.823 97.216 178.535 97.216ZM188.024 97.216C186.072 97.216 184.536 96.664 183.416 95.56C182.296 94.456 181.736 92.928 181.736 90.976C181.736 89.712 181.976 88.608 182.456 87.664C182.952 86.72 183.632 85.992 184.496 85.48C185.376 84.952 186.392 84.688 187.544 84.688C188.68 84.688 189.632 84.928 190.4 85.408C191.168 85.888 191.752 86.568 192.152 87.448C192.552 88.312 192.752 89.336 192.752 90.52V91.288H183.632V89.896H191.096L190.688 90.208C190.688 89.008 190.416 88.08 189.872 87.424C189.344 86.752 188.576 86.416 187.568 86.416C186.448 86.416 185.584 86.808 184.976 87.592C184.368 88.36 184.064 89.424 184.064 90.784V91.024C184.064 92.448 184.408 93.52 185.096 94.24C185.8 94.96 186.792 95.32 188.072 95.32C188.776 95.32 189.432 95.224 190.04 95.032C190.664 94.824 191.256 94.488 191.816 94.024L192.608 95.68C192.048 96.176 191.368 96.56 190.568 96.832C189.768 97.088 188.92 97.216 188.024 97.216ZM199.686 97.216C198.678 97.216 197.75 97.088 196.902 96.832C196.054 96.576 195.35 96.216 194.79 95.752L195.534 94.096C196.126 94.544 196.782 94.88 197.502 95.104C198.222 95.328 198.958 95.44 199.71 95.44C200.59 95.44 201.254 95.288 201.702 94.984C202.15 94.664 202.374 94.232 202.374 93.688C202.374 93.272 202.23 92.936 201.942 92.68C201.67 92.424 201.214 92.232 200.574 92.104L198.27 91.648C197.246 91.424 196.47 91.04 195.942 90.496C195.414 89.952 195.15 89.256 195.15 88.408C195.15 87.688 195.342 87.048 195.726 86.488C196.126 85.928 196.686 85.488 197.406 85.168C198.142 84.848 198.998 84.688 199.974 84.688C200.87 84.688 201.702 84.816 202.47 85.072C203.238 85.328 203.878 85.696 204.39 86.176L203.622 87.784C203.126 87.368 202.566 87.048 201.942 86.824C201.318 86.584 200.686 86.464 200.046 86.464C199.15 86.464 198.486 86.632 198.054 86.968C197.622 87.304 197.406 87.744 197.406 88.288C197.406 88.704 197.534 89.048 197.79 89.32C198.062 89.576 198.486 89.776 199.062 89.92L201.366 90.376C202.454 90.6 203.27 90.968 203.814 91.48C204.358 91.992 204.63 92.68 204.63 93.544C204.63 94.296 204.422 94.952 204.006 95.512C203.59 96.072 203.014 96.496 202.278 96.784C201.542 97.072 200.678 97.216 199.686 97.216ZM55.791 134.448L55.215 132.48C55.967 132.32 56.591 132.128 57.087 131.904C57.599 131.68 58.023 131.384 58.359 131.016C58.695 130.664 58.983 130.208 59.223 129.648L59.823 128.232L59.775 129.216L54.519 116.904H57.111L61.191 126.984H60.543L64.623 116.904H67.119L61.575 129.864C61.223 130.664 60.847 131.336 60.447 131.88C60.047 132.424 59.615 132.864 59.151 133.2C58.687 133.536 58.175 133.8 57.615 133.992C57.055 134.184 56.447 134.336 55.791 134.448ZM73.9913 129.216C72.7913 129.216 71.7513 128.968 70.8713 128.472C69.9913 127.96 69.3113 127.24 68.8313 126.312C68.3513 125.368 68.1113 124.248 68.1113 122.952C68.1113 121.656 68.3513 120.544 68.8313 119.616C69.3113 118.672 69.9913 117.952 70.8713 117.456C71.7513 116.944 72.7913 116.688 73.9913 116.688C75.1913 116.688 76.2313 116.944 77.1113 117.456C78.0073 117.952 78.6953 118.672 79.1753 119.616C79.6713 120.544 79.9193 121.656 79.9193 122.952C79.9193 124.248 79.6713 125.368 79.1753 126.312C78.6953 127.24 78.0073 127.96 77.1113 128.472C76.2313 128.968 75.1913 129.216 73.9913 129.216ZM73.9913 127.32C75.0473 127.32 75.8873 126.952 76.5113 126.216C77.1353 125.48 77.4473 124.392 77.4473 122.952C77.4473 121.512 77.1353 120.432 76.5113 119.712C75.8873 118.976 75.0473 118.608 73.9913 118.608C72.9513 118.608 72.1193 118.976 71.4953 119.712C70.8713 120.432 70.5592 121.512 70.5592 122.952C70.5592 124.392 70.8633 125.48 71.4713 126.216C72.0953 126.952 72.9353 127.32 73.9913 127.32ZM87.0486 129.216C85.5926 129.216 84.4966 128.824 83.7606 128.04C83.0406 127.24 82.6806 126.016 82.6806 124.368V116.904H85.1046V124.32C85.1046 125.328 85.3126 126.072 85.7286 126.552C86.1446 127.032 86.7766 127.272 87.6246 127.272C88.5846 127.272 89.3606 126.952 89.9526 126.312C90.5446 125.672 90.8406 124.824 90.8406 123.768V116.904H93.2646V129H90.9126V126.408H91.2246C90.8886 127.304 90.3526 128 89.6166 128.496C88.8806 128.976 88.0246 129.216 87.0486 129.216ZM103.214 129V111.336H105.638V129H103.214ZM114.374 129.216C113.174 129.216 112.134 128.968 111.254 128.472C110.374 127.96 109.694 127.24 109.214 126.312C108.734 125.368 108.494 124.248 108.494 122.952C108.494 121.656 108.734 120.544 109.214 119.616C109.694 118.672 110.374 117.952 111.254 117.456C112.134 116.944 113.174 116.688 114.374 116.688C115.574 116.688 116.614 116.944 117.494 117.456C118.39 117.952 119.078 118.672 119.558 119.616C120.054 120.544 120.302 121.656 120.302 122.952C120.302 124.248 120.054 125.368 119.558 126.312C119.078 127.24 118.39 127.96 117.494 128.472C116.614 128.968 115.574 129.216 114.374 129.216ZM114.374 127.32C115.43 127.32 116.27 126.952 116.894 126.216C117.518 125.48 117.83 124.392 117.83 122.952C117.83 121.512 117.518 120.432 116.894 119.712C116.27 118.976 115.43 118.608 114.374 118.608C113.334 118.608 112.502 118.976 111.878 119.712C111.254 120.432 110.942 121.512 110.942 122.952C110.942 124.392 111.246 125.48 111.854 126.216C112.478 126.952 113.318 127.32 114.374 127.32ZM126.476 129L121.292 116.904H123.884L127.964 127.008H127.268L131.42 116.904H133.892L128.684 129H126.476ZM141.196 129.216C139.244 129.216 137.708 128.664 136.588 127.56C135.468 126.456 134.908 124.928 134.908 122.976C134.908 121.712 135.148 120.608 135.628 119.664C136.124 118.72 136.804 117.992 137.668 117.48C138.548 116.952 139.564 116.688 140.716 116.688C141.852 116.688 142.804 116.928 143.572 117.408C144.34 117.888 144.924 118.568 145.324 119.448C145.724 120.312 145.924 121.336 145.924 122.52V123.288H136.804V121.896H144.268L143.86 122.208C143.86 121.008 143.588 120.08 143.044 119.424C142.516 118.752 141.748 118.416 140.74 118.416C139.62 118.416 138.756 118.808 138.148 119.592C137.54 120.36 137.236 121.424 137.236 122.784V123.024C137.236 124.448 137.58 125.52 138.268 126.24C138.972 126.96 139.964 127.32 141.244 127.32C141.948 127.32 142.604 127.224 143.212 127.032C143.836 126.824 144.428 126.488 144.988 126.024L145.78 127.68C145.22 128.176 144.54 128.56 143.74 128.832C142.94 129.088 142.092 129.216 141.196 129.216ZM149.042 124.32L148.274 112.08H151.274L150.53 124.32H149.042ZM148.346 129V126.144H151.202V129H148.346Z" fill="white"/>
</svg>
