<svg width="24" height="15" viewBox="0 0 24 15" fill="none" xmlns="http://www.w3.org/2000/svg">
<path d="M10.494 14.28L0.902 3.316C-0.23 2.026 0.69 7.35412e-07 2.408 7.35412e-07H21.592C21.9765 -0.000328919 22.3529 0.110176 22.6762 0.318282C22.9995 0.526388 23.256 0.823274 23.4149 1.17339C23.5738 1.5235 23.6284 1.912 23.5722 2.29236C23.516 2.67271 23.3514 3.02881 23.098 3.318L13.506 14.278C13.3183 14.4928 13.0868 14.665 12.827 14.783C12.5673 14.9009 12.2853 14.962 12 14.962C11.7147 14.962 11.4327 14.9009 11.173 14.783C10.9132 14.665 10.6817 14.4928 10.494 14.278V14.28Z" fill="#7B4F35"/>
</svg>
